v -0.500000 -0.500000 0.500000
v 0.500000 -0.500000 0.500000
v -0.500000 0.500000 0.500000
v 0.500000 0.500000 0.500000
v -0.500000 0.500000 -0.500000
v 0.500000 0.500000 -0.500000
v -0.500000 -0.500000 -0.500000
v 0.500000 -0.500000 -0.500000

vt 1.000000 0.000000
vt 1.000000 1.000000
vt 0.000000 0.000000
vt 0.000000 1.000000

vn 0.000000 0.000000 1.000000
vn 0.000000 0.000000 -1.000000
vn 1.000000 0.000000 0.000000
vn -1.000000 0.000000 0.000000
vn 0.000000 1.000000 0.000000
vn 0.000000 -1.000000 0.000000

f 3/1/1 1/2/1 4/3/1 2/4/1
f 6/1/2 8/2/2 5/3/2 7/4/2
f 4/1/3 2/2/3 6/3/3 8/4/3
f 5/1/4 7/2/4 3/3/4 1/4/4
f 5/1/5 3/2/5 6/3/5 4/4/5
f 1/1/6 7/2/6 2/3/6 8/4/6